packet|codec_type=video|stream_index=0|pts=0|pts_time=0.000000|dts=0|dts_time=0.000000|duration=1|duration_time=0.041667|size=5034|pos=41888|flags=K_|data_hash=CRC32:8e944b88
packet|codec_type=video|stream_index=0|pts=1|pts_time=0.041667|dts=1|dts_time=0.041667|duration=1|duration_time=0.041667|size=7214|pos=46942|flags=K_|data_hash=CRC32:29a5bf84
packet|codec_type=video|stream_index=0|pts=2|pts_time=0.083333|dts=2|dts_time=0.083333|duration=1|duration_time=0.041667|size=8496|pos=54176|flags=K_|data_hash=CRC32:463b8fd9
packet|codec_type=video|stream_index=0|pts=3|pts_time=0.125000|dts=3|dts_time=0.125000|duration=1|duration_time=0.041667|size=4917|pos=62692|flags=K_|data_hash=CRC32:b2df5d63
packet|codec_type=video|stream_index=0|pts=4|pts_time=0.166667|dts=4|dts_time=0.166667|duration=1|duration_time=0.041667|size=8803|pos=67629|flags=K_|data_hash=CRC32:c40b12fd
packet|codec_type=video|stream_index=0|pts=5|pts_time=0.208333|dts=5|dts_time=0.208333|duration=1|duration_time=0.041667|size=8426|pos=76452|flags=K_|data_hash=CRC32:e636a749
packet|codec_type=video|stream_index=0|pts=6|pts_time=0.250000|dts=6|dts_time=0.250000|duration=1|duration_time=0.041667|size=9626|pos=84898|flags=K_|data_hash=CRC32:cc6d1553
packet|codec_type=video|stream_index=0|pts=7|pts_time=0.291667|dts=7|dts_time=0.291667|duration=1|duration_time=0.041667|size=7409|pos=16524|flags=K_|data_hash=CRC32:385ff86f
packet|codec_type=video|stream_index=0|pts=8|pts_time=0.333333|dts=8|dts_time=0.333333|duration=1|duration_time=0.041667|size=7409|pos=16524|flags=K_|data_hash=CRC32:385ff86f
packet|codec_type=video|stream_index=0|pts=9|pts_time=0.375000|dts=9|dts_time=0.375000|duration=1|duration_time=0.041667|size=7409|pos=16524|flags=K_|data_hash=CRC32:385ff86f
packet|codec_type=video|stream_index=0|pts=10|pts_time=0.416667|dts=10|dts_time=0.416667|duration=1|duration_time=0.041667|size=7409|pos=16524|flags=K_|data_hash=CRC32:385ff86f
packet|codec_type=video|stream_index=0|pts=11|pts_time=0.458333|dts=11|dts_time=0.458333|duration=1|duration_time=0.041667|size=7409|pos=16524|flags=K_|data_hash=CRC32:385ff86f
packet|codec_type=video|stream_index=0|pts=12|pts_time=0.500000|dts=12|dts_time=0.500000|duration=1|duration_time=0.041667|size=7409|pos=16524|flags=K_|data_hash=CRC32:385ff86f
packet|codec_type=video|stream_index=0|pts=13|pts_time=0.541667|dts=13|dts_time=0.541667|duration=1|duration_time=0.041667|size=7409|pos=16524|flags=K_|data_hash=CRC32:385ff86f
packet|codec_type=video|stream_index=0|pts=14|pts_time=0.583333|dts=14|dts_time=0.583333|duration=1|duration_time=0.041667|size=7409|pos=16524|flags=K_|data_hash=CRC32:385ff86f
packet|codec_type=video|stream_index=0|pts=15|pts_time=0.625000|dts=15|dts_time=0.625000|duration=1|duration_time=0.041667|size=7409|pos=16524|flags=K_|data_hash=CRC32:385ff86f
packet|codec_type=video|stream_index=0|pts=16|pts_time=0.666667|dts=16|dts_time=0.666667|duration=1|duration_time=0.041667|size=7409|pos=16524|flags=K_|data_hash=CRC32:385ff86f
packet|codec_type=video|stream_index=0|pts=17|pts_time=0.708333|dts=17|dts_time=0.708333|duration=1|duration_time=0.041667|size=7409|pos=16524|flags=K_|data_hash=CRC32:385ff86f
packet|codec_type=video|stream_index=0|pts=18|pts_time=0.750000|dts=18|dts_time=0.750000|duration=1|duration_time=0.041667|size=7409|pos=16524|flags=K_|data_hash=CRC32:385ff86f
packet|codec_type=video|stream_index=0|pts=19|pts_time=0.791667|dts=19|dts_time=0.791667|duration=1|duration_time=0.041667|size=7409|pos=16524|flags=K_|data_hash=CRC32:385ff86f
packet|codec_type=video|stream_index=0|pts=20|pts_time=0.833333|dts=20|dts_time=0.833333|duration=1|duration_time=0.041667|size=7409|pos=16524|flags=K_|data_hash=CRC32:385ff86f
packet|codec_type=video|stream_index=0|pts=21|pts_time=0.875000|dts=21|dts_time=0.875000|duration=1|duration_time=0.041667|size=7409|pos=16524|flags=K_|data_hash=CRC32:385ff86f
packet|codec_type=video|stream_index=0|pts=22|pts_time=0.916667|dts=22|dts_time=0.916667|duration=1|duration_time=0.041667|size=7409|pos=16524|flags=K_|data_hash=CRC32:385ff86f
packet|codec_type=video|stream_index=0|pts=23|pts_time=0.958333|dts=23|dts_time=0.958333|duration=1|duration_time=0.041667|size=7409|pos=16524|flags=K_|data_hash=CRC32:385ff86f
packet|codec_type=video|stream_index=0|pts=24|pts_time=1.000000|dts=24|dts_time=1.000000|duration=1|duration_time=0.041667|size=7409|pos=16524|flags=K_|data_hash=CRC32:385ff86f
packet|codec_type=video|stream_index=0|pts=25|pts_time=1.041667|dts=25|dts_time=1.041667|duration=1|duration_time=0.041667|size=7409|pos=16524|flags=K_|data_hash=CRC32:385ff86f
packet|codec_type=video|stream_index=0|pts=26|pts_time=1.083333|dts=26|dts_time=1.083333|duration=1|duration_time=0.041667|size=7409|pos=16524|flags=K_|data_hash=CRC32:385ff86f
packet|codec_type=video|stream_index=0|pts=27|pts_time=1.125000|dts=27|dts_time=1.125000|duration=1|duration_time=0.041667|size=7409|pos=16524|flags=K_|data_hash=CRC32:385ff86f
packet|codec_type=video|stream_index=0|pts=28|pts_time=1.166667|dts=28|dts_time=1.166667|duration=1|duration_time=0.041667|size=7409|pos=16524|flags=K_|data_hash=CRC32:385ff86f
packet|codec_type=video|stream_index=0|pts=29|pts_time=1.208333|dts=29|dts_time=1.208333|duration=1|duration_time=0.041667|size=7409|pos=16524|flags=K_|data_hash=CRC32:385ff86f
packet|codec_type=video|stream_index=0|pts=30|pts_time=1.250000|dts=30|dts_time=1.250000|duration=1|duration_time=0.041667|size=7409|pos=16524|flags=K_|data_hash=CRC32:385ff86f
packet|codec_type=video|stream_index=0|pts=31|pts_time=1.291667|dts=22|dts_time=0.916667|duration=1|duration_time=0.041667|size=8426|pos=76452|flags=K_|data_hash=CRC32:e636a749
packet|codec_type=video|stream_index=0|pts=32|pts_time=1.333333|dts=14|dts_time=0.583333|duration=1|duration_time=0.041667|size=9626|pos=84898|flags=K_|data_hash=CRC32:cc6d1553
packet|codec_type=video|stream_index=0|pts=33|pts_time=1.375000|dts=6|dts_time=0.250000|duration=1|duration_time=0.041667|size=5412|pos=94544|flags=K_|data_hash=CRC32:a3758248
packet|codec_type=video|stream_index=0|pts=34|pts_time=1.416667|dts=3|dts_time=0.125000|duration=1|duration_time=0.041667|size=9129|pos=99976|flags=K_|data_hash=CRC32:8ec27c8a
packet|codec_type=video|stream_index=0|pts=35|pts_time=1.458333|dts=4|dts_time=0.166667|duration=1|duration_time=0.041667|size=10009|pos=109125|flags=K_|data_hash=CRC32:b5206d83
packet|codec_type=video|stream_index=0|pts=36|pts_time=1.500000|dts=5|dts_time=0.208333|duration=1|duration_time=0.041667|size=7204|pos=119154|flags=K_|data_hash=CRC32:57910755
packet|codec_type=video|stream_index=0|pts=37|pts_time=1.541667|dts=6|dts_time=0.250000|duration=1|duration_time=0.041667|size=9413|pos=126378|flags=K_|data_hash=CRC32:2f86a87a
packet|codec_type=video|stream_index=0|pts=38|pts_time=1.583333|dts=7|dts_time=0.291667|duration=1|duration_time=0.041667|size=10725|pos=135811|flags=K_|data_hash=CRC32:02cfa46d
packet|codec_type=video|stream_index=0|pts=39|pts_time=1.625000|dts=8|dts_time=0.333333|duration=1|duration_time=0.041667|size=7101|pos=146556|flags=K_|data_hash=CRC32:f66dc0f0
packet|codec_type=video|stream_index=0|pts=40|pts_time=1.666667|dts=9|dts_time=0.375000|duration=1|duration_time=0.041667|size=10984|pos=153677|flags=K_|data_hash=CRC32:6b4605ea
stream|index=0|codec_name=jpeg2000|profile=1798|codec_type=video|codec_tag_string=[0][0][0][0]|codec_tag=0x0000|width=1920|height=1080|coded_width=1920|coded_height=1080|closed_captions=0|film_grain=0|has_b_frames=0|sample_aspect_ratio=N/A|display_aspect_ratio=N/A|pix_fmt=rgb48le|level=-99|color_range=unknown|color_space=unknown|color_transfer=bt709|color_primaries=bt709|chroma_location=unspecified|field_order=progressive|refs=1|id=N/A|r_frame_rate=24/1|avg_frame_rate=0/0|time_base=1/24|start_pts=0|start_time=0.000000|duration_ts=41|duration=1.708333|bit_rate=N/A|max_bit_rate=N/A|bits_per_raw_sample=16|nb_frames=N/A|nb_read_frames=N/A|nb_read_packets=41|disposition:default=0|disposition:dub=0|disposition:original=0|disposition:comment=0|disposition:lyrics=0|disposition:karaoke=0|disposition:forced=0|disposition:hearing_impaired=0|disposition:visual_impaired=0|disposition:clean_effects=0|disposition:attached_pic=0|disposition:timed_thumbnails=0|disposition:captions=0|disposition:descriptions=0|disposition:metadata=0|disposition:dependent=0|disposition:still_image=0
format|filename=CPL_f5095caa-f204-4e1c-8a84-7af48c7ae16b.xml|nb_streams=1|nb_programs=0|format_name=imf|start_time=0.000000|duration=1.708333|size=9065|bit_rate=42450|probe_score=50
